<svg xmlns="http://www.w3.org/2000/svg" xmlns:xlink="http://www.w3.org/1999/xlink" width="685" zoomAndPan="magnify" viewBox="0 0 513.75 156.749997" height="209" preserveAspectRatio="xMidYMid meet" version="1.0"><defs><g/><clipPath id="eb3d5331fa"><path d="M 0.285156 29.363281 L 105.867188 29.363281 L 105.867188 134.941406 L 0.285156 134.941406 Z M 0.285156 29.363281 " clip-rule="nonzero"/></clipPath></defs><g clip-path="url(#eb3d5331fa)"><path fill="#007aff" d="M 0.285156 76.285156 C 0.285156 54.164062 0.285156 43.105469 7.15625 36.234375 C 14.027344 29.363281 25.089844 29.363281 47.210938 29.363281 L 58.941406 29.363281 C 81.0625 29.363281 92.121094 29.363281 98.992188 36.234375 C 105.867188 43.105469 105.867188 54.164062 105.867188 76.285156 L 105.867188 88.019531 C 105.867188 110.136719 105.867188 121.199219 98.992188 128.070312 C 92.121094 134.941406 81.0625 134.941406 58.941406 134.941406 L 47.210938 134.941406 C 25.089844 134.941406 14.027344 134.941406 7.15625 128.070312 C 0.285156 121.199219 0.285156 110.136719 0.285156 88.019531 Z M 88.269531 55.757812 C 88.269531 60.617188 84.328125 64.554688 79.46875 64.554688 C 74.609375 64.554688 70.671875 60.617188 70.671875 55.757812 C 70.671875 50.898438 74.609375 46.957031 79.46875 46.957031 C 84.328125 46.957031 88.269531 50.898438 88.269531 55.757812 Z M 64.804688 88.019531 C 64.804688 94.496094 59.554688 99.75 53.074219 99.75 C 46.597656 99.75 41.34375 94.496094 41.34375 88.019531 C 41.34375 81.539062 46.597656 76.285156 53.074219 76.285156 C 59.554688 76.285156 64.804688 81.539062 64.804688 88.019531 Z M 76.539062 88.019531 C 76.539062 100.976562 66.03125 111.480469 53.074219 111.480469 C 40.117188 111.480469 29.613281 100.976562 29.613281 88.019531 C 29.613281 75.058594 40.117188 64.554688 53.074219 64.554688 C 66.03125 64.554688 76.539062 75.058594 76.539062 88.019531 Z M 76.539062 88.019531 " fill-opacity="1" fill-rule="evenodd"/></g><g fill="#000000" fill-opacity="1"><g transform="translate(132.253975, 110.104522)"><g><path d="M 24.109375 -60.578125 C 31.929688 -60.578125 37.644531 -59.050781 41.25 -56 C 44.851562 -52.945312 46.65625 -48.578125 46.65625 -42.890625 C 46.65625 -40.316406 46.234375 -37.875 45.390625 -35.5625 C 44.546875 -33.257812 43.1875 -31.226562 41.3125 -29.46875 C 39.4375 -27.71875 36.972656 -26.335938 33.921875 -25.328125 C 30.867188 -24.328125 27.128906 -23.828125 22.703125 -23.828125 L 15.328125 -23.828125 L 15.328125 0 L 8.28125 0 L 8.28125 -60.578125 Z M 23.453125 -54.5625 L 15.328125 -54.5625 L 15.328125 -29.875 L 21.921875 -29.875 C 25.785156 -29.875 29.007812 -30.285156 31.59375 -31.109375 C 34.175781 -31.941406 36.113281 -33.289062 37.40625 -35.15625 C 38.707031 -37.019531 39.359375 -39.5 39.359375 -42.59375 C 39.359375 -46.625 38.070312 -49.625 35.5 -51.59375 C 32.9375 -53.570312 28.921875 -54.5625 23.453125 -54.5625 Z M 23.453125 -54.5625 "/></g></g></g><g fill="#000000" fill-opacity="1"><g transform="translate(183.303016, 110.104522)"><g><path d="M 14.125 -45.40625 L 14.125 0 L 7.25 0 L 7.25 -45.40625 Z M 10.765625 -62.40625 C 11.898438 -62.40625 12.875 -62.035156 13.6875 -61.296875 C 14.507812 -60.566406 14.921875 -59.429688 14.921875 -57.890625 C 14.921875 -56.367188 14.507812 -55.234375 13.6875 -54.484375 C 12.875 -53.742188 11.898438 -53.375 10.765625 -53.375 C 9.578125 -53.375 8.585938 -53.742188 7.796875 -54.484375 C 7.015625 -55.234375 6.625 -56.367188 6.625 -57.890625 C 6.625 -59.429688 7.015625 -60.566406 7.796875 -61.296875 C 8.585938 -62.035156 9.578125 -62.40625 10.765625 -62.40625 Z M 10.765625 -62.40625 "/></g></g></g><g fill="#000000" fill-opacity="1"><g transform="translate(204.725387, 110.104522)"><g><path d="M 18.0625 -23.25 L 2.359375 -45.40625 L 10.234375 -45.40625 L 22.203125 -27.921875 L 34.140625 -45.40625 L 41.9375 -45.40625 L 26.234375 -23.25 L 42.796875 0 L 34.9375 0 L 22.203125 -18.515625 L 9.40625 0 L 1.609375 0 Z M 18.0625 -23.25 "/></g></g></g><g fill="#000000" fill-opacity="1"><g transform="translate(249.144683, 110.104522)"><g><path d="M 14.125 -45.40625 L 14.125 0 L 7.25 0 L 7.25 -45.40625 Z M 10.765625 -62.40625 C 11.898438 -62.40625 12.875 -62.035156 13.6875 -61.296875 C 14.507812 -60.566406 14.921875 -59.429688 14.921875 -57.890625 C 14.921875 -56.367188 14.507812 -55.234375 13.6875 -54.484375 C 12.875 -53.742188 11.898438 -53.375 10.765625 -53.375 C 9.578125 -53.375 8.585938 -53.742188 7.796875 -54.484375 C 7.015625 -55.234375 6.625 -56.367188 6.625 -57.890625 C 6.625 -59.429688 7.015625 -60.566406 7.796875 -61.296875 C 8.585938 -62.035156 9.578125 -62.40625 10.765625 -62.40625 Z M 10.765625 -62.40625 "/></g></g></g><g fill="#000000" fill-opacity="1"><g transform="translate(270.567055, 110.104522)"><g><path d="M 14.171875 0 L 7.25 0 L 7.25 -64.46875 L 14.171875 -64.46875 Z M 14.171875 0 "/></g></g></g><g fill="#000000" fill-opacity="1"><g transform="translate(291.989426, 110.104522)"><g><path d="M 24.734375 -46.234375 C 28.597656 -46.234375 31.910156 -45.378906 34.671875 -43.671875 C 37.441406 -41.960938 39.554688 -39.566406 41.015625 -36.484375 C 42.484375 -33.398438 43.21875 -29.800781 43.21875 -25.6875 L 43.21875 -21.421875 L 11.84375 -21.421875 C 11.925781 -16.085938 13.253906 -12.023438 15.828125 -9.234375 C 18.398438 -6.453125 22.019531 -5.0625 26.6875 -5.0625 C 29.5625 -5.0625 32.101562 -5.320312 34.3125 -5.84375 C 36.519531 -6.363281 38.8125 -7.132812 41.1875 -8.15625 L 41.1875 -2.109375 C 38.894531 -1.085938 36.625 -0.34375 34.375 0.125 C 32.125 0.59375 29.460938 0.828125 26.390625 0.828125 C 22.023438 0.828125 18.21875 -0.0625 14.96875 -1.84375 C 11.726562 -3.625 9.207031 -6.238281 7.40625 -9.6875 C 5.613281 -13.144531 4.71875 -17.375 4.71875 -22.375 C 4.71875 -27.257812 5.539062 -31.488281 7.1875 -35.0625 C 8.832031 -38.644531 11.148438 -41.398438 14.140625 -43.328125 C 17.140625 -45.265625 20.671875 -46.234375 24.734375 -46.234375 Z M 24.65625 -40.609375 C 20.976562 -40.609375 18.046875 -39.40625 15.859375 -37 C 13.679688 -34.59375 12.382812 -31.238281 11.96875 -26.9375 L 36 -26.9375 C 35.976562 -29.644531 35.554688 -32.023438 34.734375 -34.078125 C 33.921875 -36.140625 32.6875 -37.742188 31.03125 -38.890625 C 29.375 -40.035156 27.25 -40.609375 24.65625 -40.609375 Z M 24.65625 -40.609375 "/></g></g></g><g fill="#000000" fill-opacity="1"><g transform="translate(339.640723, 110.104522)"><g><path d="M 28.75 -46.234375 C 34.132812 -46.234375 38.207031 -44.914062 40.96875 -42.28125 C 43.738281 -39.644531 45.125 -35.410156 45.125 -29.578125 L 45.125 0 L 38.328125 0 L 38.328125 -29.125 C 38.328125 -32.914062 37.460938 -35.75 35.734375 -37.625 C 34.003906 -39.5 31.359375 -40.4375 27.796875 -40.4375 C 22.773438 -40.4375 19.238281 -39.015625 17.1875 -36.171875 C 15.144531 -33.328125 14.125 -29.195312 14.125 -23.78125 L 14.125 0 L 7.25 0 L 7.25 -45.40625 L 12.796875 -45.40625 L 13.84375 -38.859375 L 14.21875 -38.859375 C 15.175781 -40.460938 16.398438 -41.8125 17.890625 -42.90625 C 19.390625 -44 21.0625 -44.828125 22.90625 -45.390625 C 24.757812 -45.953125 26.707031 -46.234375 28.75 -46.234375 Z M 28.75 -46.234375 "/></g></g></g><g fill="#000000" fill-opacity="1"><g transform="translate(391.684226, 110.104522)"><g><path d="M 25.4375 0.828125 C 21.351562 0.828125 17.75 -0.0078125 14.625 -1.6875 C 11.5 -3.375 9.066406 -5.941406 7.328125 -9.390625 C 5.585938 -12.847656 4.71875 -17.203125 4.71875 -22.453125 C 4.71875 -27.953125 5.632812 -32.445312 7.46875 -35.9375 C 9.3125 -39.4375 11.847656 -42.023438 15.078125 -43.703125 C 18.316406 -45.390625 21.992188 -46.234375 26.109375 -46.234375 C 28.367188 -46.234375 30.554688 -46.003906 32.671875 -45.546875 C 34.785156 -45.097656 36.519531 -44.53125 37.875 -43.84375 L 35.796875 -38.078125 C 34.421875 -38.628906 32.828125 -39.125 31.015625 -39.5625 C 29.203125 -40.007812 27.507812 -40.234375 25.9375 -40.234375 C 22.789062 -40.234375 20.171875 -39.554688 18.078125 -38.203125 C 15.992188 -36.847656 14.429688 -34.859375 13.390625 -32.234375 C 12.359375 -29.609375 11.84375 -26.378906 11.84375 -22.546875 C 11.84375 -18.867188 12.347656 -15.726562 13.359375 -13.125 C 14.367188 -10.53125 15.875 -8.550781 17.875 -7.1875 C 19.882812 -5.820312 22.394531 -5.140625 25.40625 -5.140625 C 27.800781 -5.140625 29.96875 -5.394531 31.90625 -5.90625 C 33.84375 -6.414062 35.597656 -7.015625 37.171875 -7.703125 L 37.171875 -1.578125 C 35.648438 -0.804688 33.957031 -0.210938 32.09375 0.203125 C 30.226562 0.617188 28.007812 0.828125 25.4375 0.828125 Z M 25.4375 0.828125 "/></g></g></g><g fill="#000000" fill-opacity="1"><g transform="translate(432.332871, 110.104522)"><g><path d="M 24.734375 -46.234375 C 28.597656 -46.234375 31.910156 -45.378906 34.671875 -43.671875 C 37.441406 -41.960938 39.554688 -39.566406 41.015625 -36.484375 C 42.484375 -33.398438 43.21875 -29.800781 43.21875 -25.6875 L 43.21875 -21.421875 L 11.84375 -21.421875 C 11.925781 -16.085938 13.253906 -12.023438 15.828125 -9.234375 C 18.398438 -6.453125 22.019531 -5.0625 26.6875 -5.0625 C 29.5625 -5.0625 32.101562 -5.320312 34.3125 -5.84375 C 36.519531 -6.363281 38.8125 -7.132812 41.1875 -8.15625 L 41.1875 -2.109375 C 38.894531 -1.085938 36.625 -0.34375 34.375 0.125 C 32.125 0.59375 29.460938 0.828125 26.390625 0.828125 C 22.023438 0.828125 18.21875 -0.0625 14.96875 -1.84375 C 11.726562 -3.625 9.207031 -6.238281 7.40625 -9.6875 C 5.613281 -13.144531 4.71875 -17.375 4.71875 -22.375 C 4.71875 -27.257812 5.539062 -31.488281 7.1875 -35.0625 C 8.832031 -38.644531 11.148438 -41.398438 14.140625 -43.328125 C 17.140625 -45.265625 20.671875 -46.234375 24.734375 -46.234375 Z M 24.65625 -40.609375 C 20.976562 -40.609375 18.046875 -39.40625 15.859375 -37 C 13.679688 -34.59375 12.382812 -31.238281 11.96875 -26.9375 L 36 -26.9375 C 35.976562 -29.644531 35.554688 -32.023438 34.734375 -34.078125 C 33.921875 -36.140625 32.6875 -37.742188 31.03125 -38.890625 C 29.375 -40.035156 27.25 -40.609375 24.65625 -40.609375 Z M 24.65625 -40.609375 "/></g></g></g></svg>